<svg xmlns="http://www.w3.org/2000/svg" width="36" height="36" viewBox="0 0 36 36">
    <path fill="#3FCBFF" fill-rule="evenodd" d="M18 4.5C10.544 4.5 4.5 10.544 4.5 18S10.544 31.5 18 31.5 31.5 25.456 31.5 18C31.49 10.548 25.452 4.51 18 4.5zm11.773 12.656h-4.145c-.41-3.57-3.215-6.374-6.75-6.78l-.035-4.146c5.851.435 10.492 5.075 10.927 10.887l.003.04zM18 23.991c-3.308 0-5.99-2.683-5.99-5.991s2.682-5.99 5.99-5.99c3.308 0 5.99 2.682 5.99 5.99-.004 3.307-2.683 5.986-5.99 5.99zm-.844-17.778v4.151c-3.57.415-6.374 3.22-6.784 6.757l-4.158.035c.44-5.858 5.084-10.504 10.903-10.94l.04-.003zM6.227 18.843h4.146c.41 3.57 3.214 6.375 6.749 6.781l.035 4.146c-5.851-.435-10.492-5.075-10.927-10.887l-.003-.04zm12.617 10.944v-4.16c3.57-.408 6.377-3.212 6.784-6.748l4.158-.035c-.44 5.857-5.085 10.501-10.903 10.94l-.04.003z"/>
</svg>
