<svg xmlns="http://www.w3.org/2000/svg" width="36" height="36" viewBox="0 0 36 36">
    <path fill="#3FCBFF" fill-rule="evenodd" d="M6.801 16.234l.113.07.127.105 3.052 3.013c.4.394.4 1.039 0 1.432-.194.191-.453.294-.722.294-.17 0-.337-.04-.495-.127l-.116-.074-.11-.093-1.262-1.246.019.183c.565 4.948 4.7 8.832 9.778 9.108l.288.012.29.004c3.877 0 7.41-2.102 9.223-5.488.218-.405.681-.609 1.134-.508l.124.035.12.053c.5.26.692.876.427 1.37-2.169 4.047-6.394 6.56-11.026 6.56-3.328 0-6.459-1.279-8.813-3.601C6.858 25.27 5.596 22.59 5.345 19.7l-.013-.173-1.342 1.327c-.337.332-.851.383-1.242.154l-.104-.07-.095-.084c-.331-.324-.392-.826-.158-1.227l.07-.107.087-.097L5.6 16.409c.322-.317.812-.38 1.201-.175zm11.2-4.668c3.426 0 5.164 1.39 5.164 4.132l-.004.207c-.06 1.522-.826 3.819-4.873 3.922l-.288.004h-1.033v1.033h2.066c.57 0 1.033.463 1.033 1.033 0 .53-.399.967-.912 1.027l-.12.006h-2.067v1.034c0 .571-.462 1.033-1.033 1.033-.53 0-.966-.398-1.026-.913l-.007-.12V22.93h-1.033c-.57 0-1.032-.461-1.032-1.033 0-.53.399-.966.912-1.026l.12-.007h1.033v-1.033h-1.033c-.57 0-1.032-.462-1.032-1.033 0-.53.399-.967.912-1.026l.12-.007h1.033v-5.166c0-.53.4-.967.913-1.026l.12-.007H18zm.233-5.941c3.329 0 6.46 1.28 8.814 3.603 2.094 2.065 3.356 4.743 3.607 7.634l.012.172 1.343-1.325c.295-.293.732-.37 1.11-.216l.124.06.108.07.098.085c.331.325.393.825.16 1.227l-.07.107-.087.099-3.053 3.013c-.196.19-.454.293-.721.293-.17 0-.336-.041-.493-.128l-.117-.073-.11-.093-3.052-3.012c-.4-.395-.4-1.038 0-1.432.327-.325.831-.385 1.234-.156l.108.07.098.085 1.263 1.246-.018-.183c-.566-4.948-4.701-8.832-9.779-9.108l-.288-.011-.29-.004c-3.877 0-7.41 2.102-9.22 5.487-.264.492-.883.68-1.381.42-.498-.261-.69-.875-.425-1.37 2.167-4.046 6.393-6.56 11.025-6.56zM18 13.632h-1.033v4.133H18c2.201 0 3.099-.599 3.099-2.067 0-1.612-.939-2.012-2.682-2.06L18 13.631z"/>
</svg>
