<svg xmlns="http://www.w3.org/2000/svg" width="36" height="36" viewBox="0 0 36 36">
    <path fill="#3FCBFF" fill-rule="evenodd" d="M18 4.5C10.544 4.5 4.5 10.544 4.5 18S10.544 31.5 18 31.5 31.5 25.456 31.5 18C31.49 10.548 25.452 4.51 18 4.5zm9.872 19.286c-.91-.626-1.953-1.169-3.061-1.577.114-1.287.236-2.734.236-4.208 0-1.474-.122-2.921-.355-4.33 1.29-.31 2.39-.893 3.392-1.606-.005-.005.03-.042.06-.082 1.05 1.717 1.671 3.796 1.671 6.02 0 2.244-.632 4.34-1.726 6.12-.031-.165-.114-.261-.214-.335l-.003-.002zM18 29.812c-1.863 0-3.815-2.47-4.765-6.488 1.43-.392 3.072-.618 4.767-.618 1.695 0 3.337.226 4.898.648-1.084 3.99-3.037 6.459-4.9 6.459zm0-8.791h-.01c-1.805 0-3.556.238-5.22.684-.03-1.137-.127-2.41-.127-3.708 0-1.296.097-2.57.285-3.815 1.51.554 3.263.792 5.072.792 1.809 0 3.562-.238 5.23-.684.03 1.137.128 2.41.128 3.707 0 1.296-.098 2.57-.286 3.814-1.504-.552-3.251-.788-5.053-.788H18l.001-.002zm0-14.834c1.863 0 3.815 2.472 4.765 6.489-1.43.392-3.072.618-4.767.618-1.695 0-3.337-.226-4.898-.648 1.085-3.99 3.037-6.459 4.9-6.459zm9.23 4.461c-.064.02-.12.048-.172.08-.773.55-1.663 1.032-2.61 1.397-.53-1.962-1.325-3.714-2.409-5.249 2.114.827 3.857 2.108 5.173 3.746l.019.026zM13.934 6.924c-1.053 1.488-1.849 3.242-2.277 5.133-1.041-.294-1.924-.77-2.734-1.342-.018-.008-.082-.037-.15-.057 1.329-1.668 3.075-2.953 5.078-3.71l.083-.024zm-6.075 5.052c.037.051.079.095.124.134.954.678 2.048 1.258 3.214 1.687-.115 1.286-.236 2.732-.236 4.206 0 1.474.121 2.919.354 4.326-1.3.313-2.405.902-3.413 1.623.01 0-.02.033-.046.067-1.049-1.717-1.67-3.796-1.67-6.019 0-2.226.622-4.306 1.7-6.078l-.027.054zm.92 13.39c.059-.022.109-.047.156-.078.778-.554 1.671-1.037 2.623-1.404.53 1.962 1.326 3.715 2.41 5.25-2.113-.828-3.856-2.108-5.172-3.746l-.016-.021zM22.07 29.08c1.053-1.486 1.848-3.238 2.277-5.128.992.274 1.832.718 2.608 1.249.06.041.182.088.314.104-1.337 1.688-3.097 2.986-5.12 3.748l-.079.027z"/>
</svg>
