<svg xmlns="http://www.w3.org/2000/svg" width="36" height="36" viewBox="0 0 36 36">
    <path fill="#3FCBFF" fill-rule="evenodd" d="M30.323 17.69c.323-.485.58-1.085.58-1.888 0-.992-.442-3.047-3.358-3.143-.65-.021-3.856-.024-5.524-.024.184-1.727.358-5.148-1.146-6.953C20.272 4.958 19.37 4.5 18.36 4.5h-.083c-3.419 0-3.45 2.934-3.464 4.04l-.008.612c.01.145.015.312.015.482 0 1.46-.409 2.825-1.119 3.987-.252.512-.775.897-1.393.97-.715-.714-1.698-1.158-2.783-1.158-2.154 0-3.9 1.745-3.901 3.9v10.27c0 2.153 1.745 3.897 3.897 3.897 1.055 0 2.01-.419 2.712-1.099.53-.069 1.144-.11 1.768-.11 1.04 0 2.054.113 3.032.325.97.175 2.246.32 3.543.387.488.019 1.004.027 1.588.027.875 0 1.915-.018 3.027-.05 2.039-.06 3.256-1.036 3.256-2.611 0-.5-.097-.939-.272-1.336 1.343-.178 2.363-1.293 2.413-2.655 0-.65-.165-1.192-.45-1.653.972-.37 1.64-1.296 1.64-2.378 0-.045 0-.09-.003-.135 0-1.064-.646-2.133-1.453-2.521zM7.321 27.603V17.337c.024-1.2 1.002-2.164 2.206-2.164s2.182.964 2.207 2.162v10.271c-.026 1.2-1.004 2.162-2.207 2.162-1.205 0-2.184-.964-2.206-2.163v-.003zm18.234-2.073c-1.51.012-3.02 0-3.04 0-.479 0-.858.38-.858.847 0 .467.377.846.844.848.056 0 .704.005 1.553.005.452 0 .96 0 1.468-.006 1.026.039 1.231.45 1.231 1.143 0 .215 0 .87-1.603.916-1.822.054-3.435.063-4.427.028-1.305-.068-2.516-.207-3.704-.416-.92-.186-2.186-.309-3.48-.309l-.258.002c.098-.295.15-.634.156-.985V17.335c-.006-.436-.084-.85-.221-1.238.846-.28 1.523-.86 1.947-1.604.855-1.394 1.356-3.06 1.356-4.843 0-.168-.004-.335-.013-.5l.009-.589c.019-1.634.277-2.363 1.772-2.363.025-.002.053-.002.082-.002.485 0 .917.221 1.202.57 1.228 1.47.861 5.235.615 6.566-.008.045-.013.099-.013.153 0 .468.38.849.849.849.055 0 5.632 0 6.472.022 1.424.047 1.71.59 1.71 1.456 0 1.266-1.633 1.362-1.82 1.369-1.738.057-3.044.032-3.056.033-.484 0-.865.38-.865.848 0 .462.37.838.83.847.027 0 .317.005.798.005.404 0 .949 0 1.58-.018.018.004.04.007.063.01.012 0 .891-.056 1.69-.03 1.48.047 1.662.692 1.662 1.35 0 .7-.35 1.176-2.06 1.233-.082.008-4.49 0-4.617 0-.468 0-.848.379-.848.847 0 .467.38.847.848.847.03 0 3.064 0 3.874.021 1.491.044 1.616.62 1.616 1.206-.005 1.051-1.66 1.117-1.727 1.12-.472.015-1.04.024-1.617.029z"/>
</svg>
