<svg width="88" height="33" xmlns="http://www.w3.org/2000/svg" xmlns:xlink="http://www.w3.org/1999/xlink"><defs><path d="m0 11.62 12.919-1.805v5.156L0 16.385v-4.764Zm4.122 5.055 4.73-.48V33h-4.73V16.675Zm10.54-7.104 4.984-.697V33h-4.983V9.57Zm5.913-.827 7.196-1.006v5.608l-7.196.787v-5.39Zm0 9.4 4.724-.403v5.636l-4.724.256v-5.488Zm0 9.444 7.196-.216V33h-7.196v-5.412Zm25.807-22.46 6.533-.914V33h-6.533V5.128Zm7.754-1.085 9.52-1.33v6.7l-9.52 1.041v-6.41Zm0 11.234 6.24-.533v6.723l-6.24.34v-6.53Zm0 11.302 9.52-.285V33h-9.52v-6.42ZM29.675 7.472l5.676-.794V33h-5.677V7.472Zm6.736 19.64 8.24-.246V33h-8.24v-5.887Zm48.59-24.715c1.887 1.775 2.839 4.29 2.611 6.898-.43 4.932-2.836 8.884-9.534 15.394l-10.962.358s7.636-6.9 10.508-10.271c1.86-2.185 2.649-4.543 1.885-6.114-.485-.996-1.572-1.492-2.912-1.418V.134c3.311-.474 6.34.322 8.403 2.263ZM88 33H65.765v-6.891L88 25.559v7.44ZM75.32.293l.004 7.242c-1.356.568-2.696 1.602-2.382 5.96l-6.887.608C65.689 6.389 68.86 1.66 75.32.293Z" id="path-1"/></defs><g id="Symbols" stroke="none" stroke-width="1" fill="none" fill-rule="evenodd"><g id="Icons/Logo"><g id="logo"><mask id="mask-2" fill="#fff"><use xlink:href="#path-1"/></mask><use id="Mask" fill="#FFF" xlink:href="#path-1"/></g></g></g></svg>